<mxfile host="65bd71144e">
    <diagram name="Page-1" id="lX3twSQKGP3NPyZ5zAtj">
        <mxGraphModel dx="1109" dy="795" grid="1" gridSize="10" guides="1" tooltips="1" connect="1" arrows="1" fold="1" page="1" pageScale="1" pageWidth="827" pageHeight="1169" math="0" shadow="0">
            <root>
                <mxCell id="0"/>
                <mxCell id="1" parent="0"/>
                <mxCell id="25" style="edgeStyle=none;html=1;" parent="1" source="LCPyGsaO_YFeMnD2ww-F-5" target="18" edge="1">
                    <mxGeometry relative="1" as="geometry"/>
                </mxCell>
                <mxCell id="LCPyGsaO_YFeMnD2ww-F-5" value="&lt;pre class=&quot;p-code-container p-code-container--block p-code-highlight__code-wrapper&quot;&gt;&lt;code style=&quot;font-family: var(--monaco-monospace-font);&quot;&gt;&lt;span class=&quot;hljs-string&quot;&gt;SUBMITTED&lt;/span&gt;&lt;/code&gt;&lt;/pre&gt;" style="ellipse;whiteSpace=wrap;html=1;" parent="1" vertex="1">
                    <mxGeometry x="553" y="270" width="120" height="80" as="geometry"/>
                </mxCell>
                <mxCell id="LCPyGsaO_YFeMnD2ww-F-13" value="" style="endArrow=classic;html=1;rounded=0;entryX=1;entryY=0;entryDx=0;entryDy=0;strokeWidth=2;" parent="1" target="LCPyGsaO_YFeMnD2ww-F-5" edge="1">
                    <mxGeometry width="50" height="50" relative="1" as="geometry">
                        <mxPoint x="679" y="250" as="sourcePoint"/>
                        <mxPoint x="589" y="170" as="targetPoint"/>
                    </mxGeometry>
                </mxCell>
                <mxCell id="3" value="&lt;pre class=&quot;p-code-container p-code-container--block p-code-highlight__code-wrapper&quot;&gt;&lt;code&gt;&lt;span class=&quot;hljs-string&quot;&gt;TERMINATED&lt;/span&gt;&lt;/code&gt;&lt;/pre&gt;" style="ellipse;whiteSpace=wrap;html=1;strokeWidth=2;fillColor=#2E0000;" parent="1" vertex="1">
                    <mxGeometry x="50" y="290" width="120" height="80" as="geometry"/>
                </mxCell>
                <mxCell id="30" style="edgeStyle=none;html=1;" parent="1" source="17" target="LCPyGsaO_YFeMnD2ww-F-5" edge="1">
                    <mxGeometry relative="1" as="geometry"/>
                </mxCell>
                <mxCell id="17" value="&lt;pre class=&quot;p-code-container p-code-container--block p-code-highlight__code-wrapper&quot;&gt;&lt;code&gt;&lt;span class=&quot;hljs-string&quot;&gt;EVENT&lt;/span&gt;&lt;/code&gt;&lt;/pre&gt;" style="ellipse;whiteSpace=wrap;html=1;strokeWidth=1;" parent="1" vertex="1">
                    <mxGeometry x="310" y="230" width="120" height="80" as="geometry"/>
                </mxCell>
                <mxCell id="26" style="edgeStyle=none;html=1;" parent="1" source="18" target="19" edge="1">
                    <mxGeometry relative="1" as="geometry"/>
                </mxCell>
                <mxCell id="18" value="&lt;pre class=&quot;p-code-container p-code-container--block p-code-highlight__code-wrapper&quot;&gt;&lt;code&gt;&lt;span class=&quot;hljs-string&quot;&gt;TO_LAUNCH&lt;/span&gt;&lt;/code&gt;&lt;/pre&gt;" style="ellipse;whiteSpace=wrap;html=1;strokeWidth=1;" parent="1" vertex="1">
                    <mxGeometry x="553" y="410" width="120" height="80" as="geometry"/>
                </mxCell>
                <mxCell id="27" style="edgeStyle=none;html=1;" parent="1" source="19" target="21" edge="1">
                    <mxGeometry relative="1" as="geometry"/>
                </mxCell>
                <mxCell id="28" style="edgeStyle=none;html=1;" parent="1" source="19" target="17" edge="1">
                    <mxGeometry relative="1" as="geometry"/>
                </mxCell>
                <mxCell id="19" value="&lt;pre class=&quot;p-code-container p-code-container--block p-code-highlight__code-wrapper&quot;&gt;&lt;code&gt;&lt;span class=&quot;hljs-string&quot;&gt;LAUNCHING&lt;/span&gt;&lt;/code&gt;&lt;/pre&gt;" style="ellipse;whiteSpace=wrap;html=1;strokeWidth=1;" parent="1" vertex="1">
                    <mxGeometry x="380" y="410" width="120" height="80" as="geometry"/>
                </mxCell>
                <mxCell id="24" style="edgeStyle=none;html=1;" parent="1" source="21" target="3" edge="1">
                    <mxGeometry relative="1" as="geometry"/>
                </mxCell>
                <mxCell id="29" style="edgeStyle=none;html=1;" parent="1" source="21" target="17" edge="1">
                    <mxGeometry relative="1" as="geometry"/>
                </mxCell>
                <mxCell id="21" value="&lt;pre class=&quot;p-code-container p-code-container--block p-code-highlight__code-wrapper&quot;&gt;&lt;code&gt;&lt;span class=&quot;hljs-string&quot;&gt;RUNNING&lt;/span&gt;&lt;/code&gt;&lt;/pre&gt;" style="ellipse;whiteSpace=wrap;html=1;strokeWidth=1;" parent="1" vertex="1">
                    <mxGeometry x="220" y="360" width="120" height="80" as="geometry"/>
                </mxCell>
                <mxCell id="22" value="&lt;pre class=&quot;p-code-container p-code-container--block p-code-highlight__code-wrapper&quot;&gt;&lt;code&gt;&lt;span class=&quot;hljs-string&quot;&gt;REMOTE_WAITING&lt;/span&gt;&lt;/code&gt;&lt;/pre&gt;" style="ellipse;whiteSpace=wrap;html=1;strokeWidth=1;" parent="1" vertex="1">
                    <mxGeometry x="360" y="600" width="120" height="80" as="geometry"/>
                </mxCell>
                <mxCell id="23" value="&lt;pre class=&quot;p-code-container p-code-container--block p-code-highlight__code-wrapper&quot;&gt;&lt;code&gt;&lt;span class=&quot;hljs-string&quot;&gt;BATCH_WAITING&lt;/span&gt;&lt;/code&gt;&lt;/pre&gt;" style="ellipse;whiteSpace=wrap;html=1;strokeWidth=1;" parent="1" vertex="1">
                    <mxGeometry x="160" y="590" width="120" height="80" as="geometry"/>
                </mxCell>
                <mxCell id="31" style="edgeStyle=none;html=1;" parent="1" source="21" target="21" edge="1">
                    <mxGeometry relative="1" as="geometry"/>
                </mxCell>
            </root>
        </mxGraphModel>
    </diagram>
</mxfile>